<svg width="17" height="18" viewBox="0 0 17 18" xmlns="http://www.w3.org/2000/svg">
<path d="M15.5925 12.1448C14.465 12.1448 13.3742 11.9615 12.3567 11.6315C12.0358 11.5215 11.6783 11.604 11.4308 11.8515L9.99167 13.6573C7.3975 12.4198 4.96833 10.0823 3.67583 7.39649L5.46333 5.87483C5.71083 5.61816 5.78417 5.26066 5.68333 4.93983C5.34417 3.92233 5.17 2.83149 5.17 1.70399C5.17 1.20899 4.7575 0.796494 4.2625 0.796494H1.09083C0.595833 0.796494 0 1.01649 0 1.70399C0 10.2198 7.08583 17.2965 15.5925 17.2965C16.2433 17.2965 16.5 16.719 16.5 16.2148V13.0523C16.5 12.5573 16.0875 12.1448 15.5925 12.1448Z"/>
</svg>
