<svg width="16" height="16" viewBox="0 0 16 16" fill="none" xmlns="http://www.w3.org/2000/svg">
<path d="M15.8812 14.0625L12.6695 11.3156C13.6141 10.0945 14.125 8.60156 14.125 7.03125C14.125 5.15156 13.3914 3.38906 12.0648 2.06016C10.7383 0.73125 8.97109 0 7.09375 0C5.21641 0 3.44922 0.733594 2.12266 2.06016C0.79375 3.38672 0.0625 5.15156 0.0625 7.03125C0.0625 8.90859 0.796094 10.6758 2.12266 12.0023C3.44922 13.3312 5.21406 14.0625 7.09375 14.0625C8.66406 14.0625 10.1547 13.5516 11.3758 12.6094L14.5874 15.3539C14.6053 15.3718 14.6265 15.3859 14.6498 15.3956C14.6731 15.4053 14.6981 15.4102 14.7234 15.4102C14.7486 15.4102 14.7736 15.4053 14.7969 15.3956C14.8203 15.3859 14.8414 15.3718 14.8593 15.3539L15.8812 14.3344C15.899 14.3165 15.9132 14.2953 15.9229 14.272C15.9325 14.2487 15.9375 14.2237 15.9375 14.1984C15.9375 14.1732 15.9325 14.1482 15.9229 14.1249C15.9132 14.1015 15.899 14.0803 15.8812 14.0625ZM10.8063 10.7438C9.8125 11.7352 8.49531 12.2812 7.09375 12.2812C5.69219 12.2812 4.375 11.7352 3.38125 10.7438C2.38984 9.75 1.84375 8.43281 1.84375 7.03125C1.84375 5.62969 2.38984 4.31016 3.38125 3.31875C4.375 2.32734 5.69219 1.78125 7.09375 1.78125C8.49531 1.78125 9.81484 2.325 10.8063 3.31875C11.7977 4.3125 12.3438 5.62969 12.3438 7.03125C12.3438 8.43281 11.7977 9.75234 10.8063 10.7438Z" fill="white"/>
</svg>
